<svg xmlns="http://www.w3.org/2000/svg" width="28.561" height="30" viewBox="0 0 28.561 30"><path d="M54.265,265.638H27.43a.869.869,0,0,1-.615-.256.853.853,0,0,1-.248-.619,14.282,14.282,0,0,1,28.561,0,.853.853,0,0,1-.248.616A.869.869,0,0,1,54.265,265.638ZM27.925,264.3H53.77a12.94,12.94,0,0,0-25.846,0Z" transform="translate(-26.567 -235.638)" fill="#596274"/><path d="M141.769,29.868a7.279,7.279,0,1,1,7.279-7.279A7.279,7.279,0,0,1,141.769,29.868Zm0-13.216a5.937,5.937,0,1,0,5.937,5.937A5.937,5.937,0,0,0,141.769,16.652Z" transform="translate(-127.592 -15.31)" fill="#596274"/></svg>