<svg xmlns="http://www.w3.org/2000/svg" width="32.149" height="30" viewBox="0 0 32.149 30"><path d="M34.093,55.8q-.221,0-.458-.009a10.475,10.475,0,0,1-3.31-.506C23.7,53.366,18.212,49.315,13.543,42.9c-1.635-2.268-3.144-4.533-3.633-7.337a9.038,9.038,0,0,1,2.942-8.806,5.588,5.588,0,0,1,4.822-.675,2,2,0,0,1,1.026,1.2c.676,1.517,1.309,3.055,1.922,4.542q.34.825.677,1.636A2.027,2.027,0,0,1,21.2,35.2,9.833,9.833,0,0,1,19.2,37.939l-.016.017c-.225.226-.33.369-.03.888a20.429,20.429,0,0,0,9.936,8.547c.459.192.605.1.8-.149.361-.472.743-.937,1.113-1.39.4-.484.77-.94,1.121-1.4a1.955,1.955,0,0,1,2.542-.7c1.161.517,2.236,1.04,3.373,1.595.341.165.685.335,1.035.5a6.272,6.272,0,0,1,.718.32c.1.051.2.1.289.14l.041.021c.825.444,1.279.688,1.543,1.173a3.27,3.27,0,0,1,.143,1.92c-.242,3.042-2.322,5.188-6.014,6.2l-.03.007a7.508,7.508,0,0,1-1.673.166Zm-.447-1.415h.024a6.842,6.842,0,0,0,1.766-.12,8.288,8.288,0,0,0,3.425-1.735A4.672,4.672,0,0,0,40.407,49.3a3.879,3.879,0,0,0,.024-1.129,3.9,3.9,0,0,0-.957-.6c-.1-.049-.21-.1-.312-.152a4.661,4.661,0,0,0-.58-.26l-.042-.014-.04-.019c-.365-.175-.723-.349-1.077-.522-1.129-.549-2.2-1.07-3.337-1.574l-.019-.009c-.278-.134-.522-.14-.813.258l-.007.009c-.367.486-.769.975-1.157,1.45-.364.444-.741.9-1.089,1.359l-.009.011a1.91,1.91,0,0,1-2.446.575,21.833,21.833,0,0,1-10.6-9.128l0-.008a1.932,1.932,0,0,1,.24-2.578,8.613,8.613,0,0,0,1.743-2.345l.015-.033A.616.616,0,0,0,20,34.008L20,34q-.339-.815-.68-1.645c-.614-1.49-1.249-3.031-1.922-4.541l-.017-.039-.013-.041a.6.6,0,0,0-.316-.391,4.459,4.459,0,0,0-3.251.448l0,0A7.981,7.981,0,0,0,11.5,31.188a8.257,8.257,0,0,0-.208,4.124c.441,2.518,1.8,4.549,3.387,6.757C19.16,48.224,24.408,52.1,30.723,53.929a9.1,9.1,0,0,0,2.9.45Z" transform="translate(-9.722 -25.798)" fill="#596274"/></svg>