<svg xmlns="http://www.w3.org/2000/svg" width="27.44" height="30" viewBox="0 0 27.44 30"><path d="M54.652,21.505v-.613a5.862,5.862,0,1,0-11.724,0v.613H35.07V38.613a6.422,6.422,0,0,0,6.415,6.417H56.094a6.422,6.422,0,0,0,6.415-6.415V21.507Zm-10.383-.613a4.521,4.521,0,0,1,9.043,0v.613H44.268Zm16.9,17.721a5.081,5.081,0,0,1-5.075,5.075H41.485a5.081,5.081,0,0,1-5.075-5.075V22.846h6.517v1.669a.67.67,0,1,0,1.341,0V22.846h9.043v1.669a.67.67,0,1,0,1.341,0V22.846h6.517Z" transform="translate(-35.07 -15.03)" fill="#596274"/></svg>