<svg xmlns="http://www.w3.org/2000/svg" width="350" height="79.242" viewBox="0 0 350 79.242"><g style="isolation:isolate"><g style="mix-blend-mode:multiply;isolation:isolate"><rect width="104.286" height="0.368" transform="translate(122.857 20.028)" fill="#596274"/><path d="M532.954,359.559v4.955c0,1.533-.287,3.653.3,4.661.874,1.521,5.411,1.206,6.873.521,2.075-.978,3.511-4.413,2.148-7.323-1.291-2.746-4.832-3.081-9.173-3.033a.2.2,0,0,0-.145.219m8.43-7.32c-.031-3.9-4.268-4.742-8.21-3.842-.174,2.662-.024,5.644-.074,8.428,4.374.717,8.315-.523,8.284-4.586m1.85,4.883c2.217,1.423,4.08,2.922,4.363,5.917.218,2.356-.192,4.895-1.553,6.5-2.016,2.384-5.425,3.085-9.762,3.11-3.035.013-6.213.145-9.468.145-1.339,0-2.936.128-2.517-1.4.328-1.18,2.968-.241,3.551-1.185.439-.7.2-4.259.225-5.247.128-5.366.231-10.928.223-16.045-.739-.759-3.551-.029-3.624-1.555-.1-1.879,4.357-1.319,6.359-1.409,5.075-.23,10.083-.757,13.088,2.369,2.243,2.326,2.23,7.309-.885,8.8" transform="translate(-524.229 -316.239)" fill="#596274"/><path d="M805.717,348.626c-.452,2.461-.181,6.019-.145,8.72a5.979,5.979,0,0,0,2.807.3c2.512-.134,3.282-.3,3.922-2.514.278-.962.633-1.906,1.771-1.555,1.046.325.521,3.926.521,5.251,0,1.655.538,4.879-.663,5.106-1.866.346-1.251-2.422-2.071-3.405-.917-1.1-4.512-.465-6.213-.443a65.087,65.087,0,0,0-.15,7.322,5.972,5.972,0,0,0,.15,2.294c.547.924,4.162.546,4.586,1.475.912,2.007-1.816,1.714-3.478,1.627-1.346-.068-2.594-.077-3.7-.073-1.777.009-6.341.9-6.208-1.034.09-1.4,2.329-.867,3.473-1.332.734-1.417.518-3.266.518-5.1V351.288a8.168,8.168,0,0,0-.15-2.589c-.769-1.154-3.669.106-3.623-1.7.033-1.2,1.854-1.038,3.623-1.038,4.656,0,9.51.1,13.681-.073.743-.031,1.824-.1,2.148.368.369.534.146,2.258.146,3.333,0,.822.256,2.763-.3,3.178-1.015.761-1.728-.406-2-1.184-.377-1.095-.51-2-1.034-2.439-.775-.658-2.349-.666-3.624-.739a10.3,10.3,0,0,0-3.994.223" transform="translate(-546.156 -316.247)" fill="#596274"/><path d="M759.136,359.471c-2.219.939-4.726,2.82-4.439,5.99.542,6.025,8.835,5.884,11.761,1.851q-3.569-4.021-7.322-7.841m5.622-8.652c-.26-1.578-1.842-2.3-3.551-2.069-3.924.518-1.2,6.394.961,7.024,1.389-1.059,2.964-2.675,2.589-4.955M763.8,357.1c1.824,2.093,3.77,4.067,5.693,6.063,1.623-2.192,3.7-3.943,4.733-6.727-1.026-.584-3.546.009-3.328-1.629.164-1.238,3.105-.737,4.731-.737,1.337,0,4.619-.534,5.181.3a1.638,1.638,0,0,1,0,1.327c-.374.543-1.286.254-2.075.519-.876.3-1.509,1.444-2.069,2.143-1.887,2.373-3.82,4.581-5.545,7.03a9.312,9.312,0,0,0,2.217,2.589c.7.633,1.879,1.76,2.957,1.845,1.286.1,3.011-1.277,4.219-.145.429,2.817-3.238,4-5.622,3.99-3.447-.016-5.712-2.7-7.174-4.438a11.432,11.432,0,0,1-9.465,4.438c-4.5,0-8.028-2.2-8.357-6.507-.414-5.366,3.415-7.655,7.32-9.464-.163-.606-.655-.895-.961-1.409a6.423,6.423,0,0,1,4.733-9.76c4.134-.4,7.342,1.5,7.393,5.029.047,3.05-2.183,4.6-4.581,5.547" transform="translate(-542.379 -316.296)" fill="#596274"/><path d="M583.187,362.277h3.032a40,40,0,0,0-1.332-4.065c-.6,1.326-1.135,2.713-1.7,4.065m3.328-10.129c1.586,4.312,3.478,9.7,5.174,14.57.478,1.368,1.039,3.948,2.069,4.508.957.514,2.542.2,1.777,1.846-.979.547-2.852.128-4.883.15-1.489.018-4.27.675-4.29-.739-.011-1.261,1.683-.852,2.517-1.409a62.545,62.545,0,0,0-1.777-6.134,19.658,19.658,0,0,0-4.581-.075,31.806,31.806,0,0,0-2.219,6.066c.6.8,2.452.292,2.516,1.475.069,1.314-1.989.866-3.849.816-.855-.022-1.594.033-2.438.073-1,.051-2.37.3-2.22-.961.129-1.06,1.641-.615,2.367-1.182a9.218,9.218,0,0,0,1.108-2.365c2.11-4.832,4.171-9.408,6.285-14.351a13.338,13.338,0,0,1,1.185-2.288c.234-.286.99-.142,1.259,0" transform="translate(-528.241 -316.738)" fill="#596274"/><path d="M715.316,353.257a121.428,121.428,0,0,0,13.087.145c.721-.456.5-1.394,1.409-1.4,1.628-.018,1.45,6.519-.077,6.583-1.144.046-1.007-1.357-1.4-2.219-1.125-.7-3.222-.808-4.955-.666-.265,3.38-.146,7.584-.146,11.392,0,1.089-.231,3.085.146,3.7.69,1.1,3.438-.13,3.328,1.7-.086,1.425-3.393.737-5.252.737-1.3,0-5.229.584-5.543-.368-.584-1.751,2.438-1.317,3.176-1.923.62-2.08.371-4.806.371-7.4,0-2.635.057-5.31-.075-7.69a4.65,4.65,0,0,0-5.324,1.55c-.441.487-1.078,1.659-2.069,1.33-.961-.317-.185-2.318.225-3.473.437-1.245.97-3.163,1.843-3.255.795-.08.931.443,1.26,1.259" transform="translate(-539.293 -316.739)" fill="#596274"/><path d="M887.6,353.257a92.141,92.141,0,0,0,9.686.223,15.637,15.637,0,0,0,3.252,0c.761-.236.714-1.482,1.555-1.482,1.185,0,1.072,2.2,1.034,3.328-.041,1.383-.086,3.2-1.107,3.255-1.127.063-1.072-1.321-1.4-2.219a9.292,9.292,0,0,0-4.956-.666c-.267,3.666-.15,7.3-.15,11.314,0,1.039-.278,2.948.077,3.7.434.922,4.2.2,3.328,2.149-.445.988-4.107.368-5.547.368-1.559,0-5.106.611-5.253-.593-.219-1.818,2.75-.81,3.4-1.923.4-.674.148-2.585.148-3.619V355.846a4.881,4.881,0,0,0-4.808.884c-.7.653-1.35,2.375-2.585,2-1.01-.3-.168-2.4.218-3.473.475-1.308.9-3.172,1.851-3.255.767-.062.9.474,1.259,1.259" transform="translate(-553.149 -316.739)" fill="#596274"/><path d="M664.852,355.064c-4.936,2.611-5.086,13.476.292,16.122a6.366,6.366,0,0,0,5.028.221c5-1.957,5.734-12.117,1.555-15.606a6.727,6.727,0,0,0-6.875-.737m1.7-2.585c6.652-.589,11.074,3.026,12.126,8.5,1.551,8.059-5.3,14.464-13.826,12.572a10.707,10.707,0,0,1,1.7-21.074" transform="translate(-534.884 -316.773)" fill="#596274"/><path d="M568.894,358.054c-1.727.511-1.6-1.449-2.219-2.294-1.34-.71-4.062-.718-5.844-.513-.329,1.837-.06,4.276-.146,6.358,1.659-.15,3.013.5,4.363,0,1.28-.478.377-3.268,2.437-2.516.735.9.225,2.43.225,3.775,0,1.368.423,2.85-.076,3.92-2.15,1.072-1.359-1.987-2.219-2.739s-3.306-.213-4.658-.293a69.486,69.486,0,0,0,0,7.1c1.692.355,4.266.593,5.62-.077a5.006,5.006,0,0,0,1.7-1.848c.419-.686.684-1.91,1.925-1.257a5.187,5.187,0,0,1-.147,2.887c-.142.728-.317,2.279-.816,2.583-.574.362-2.5.152-3.921.152-2.878,0-5.04-.123-8.132,0-1.2.047-2.94.465-3.182-.521-.429-1.76,2.194-1.162,2.959-1.773.293-4.91.15-10.645.073-15.677-.787-.756-2.62-.1-2.807-1.332-.251-1.663,2.812-1.094,4.436-1.035,2.43.082,4.426-.073,7.1-.073,1.063,0,2.96-.155,3.328.218s.219,1.9.219,2.517a5.141,5.141,0,0,1-.219,2.439" transform="translate(-526.595 -316.805)" fill="#596274"/><path d="M606.569,355.166a82.033,82.033,0,0,0-.371,12.426,5.792,5.792,0,0,0,.739,2.512c1.483,2.28,6.848,2.093,8.507.152,1.363-1.6,1.253-4.77,1.253-7.988a61.824,61.824,0,0,0-.143-7.025c-.845-.52-2.353-.108-2.517-1.187-.247-1.638,2.014-1.129,3.552-1.107,1.5.024,3.824-.488,4.215.443.84,1.982-1.915,1.144-2.589,1.85-.428.446-.223,2.812-.223,3.995,0,4.192.494,9.349-1.18,11.828-2.452,3.635-12.413,4.021-14.57.073-1.116-2.047-.944-4.953-.812-7.686.064-1.444.009-2.852.074-4.291a14.007,14.007,0,0,0-.224-4.068c-.961-.4-2.289.095-2.735-.666a1.037,1.037,0,0,1,.664-1.55c1.119-.27,3.229.114,5.029.073,1.7-.04,3.926-.47,3.994.889.073,1.431-1.628.88-2.662,1.327" transform="translate(-530.275 -316.802)" fill="#596274"/><path d="M702.157,367.743V355.25c-1.111-.585-3.529.2-3.623-1.26-.1-1.6,2.5-1.056,4.367-1.034,1.564.017,4.5-.556,4.734.664.282,1.528-1.489,1.149-2.815,1.55-.546,1.259-.368,2.965-.368,4.661v10.059c0,1.1.317,4.041-.516,4.437-1.072.505-1.914-.725-2.444-1.332-4.128-4.772-8.392-9.751-12.574-14.424.225,3.214-.057,6.328.08,9.693.03.874-.016,2.548.368,2.881.726.637,4.486-.316,3.623,1.777-.395.958-3.295.368-4.881.368-1.564,0-4.541.508-4.955-.3-.779-1.521,1.55-1.632,3.03-1.7.316-3.834.311-8.291.521-12.724.041-.9.141-2.889-.223-3.251-.739-.732-3.154.243-3.4-1.1-.311-1.716,2-1.27,3.551-1.259a14.084,14.084,0,0,1,2.512,0c.7.188,1.308.983,1.85,1.627,3.58,4.24,7.628,9.176,11.164,13.16" transform="translate(-536.999 -316.807)" fill="#596274"/><path d="M828.529,355.024a50.887,50.887,0,0,0-.224,7.914V371c.83.809,2.808.095,2.813,1.475,0,1.5-3.233.794-5.252.816-1.213.014-5.521.7-4.436-1.4.42-.825,2.261-.2,2.957-.887.243-4.934.247-10.891,0-15.829-.6-.386-1.769-.2-2.219-.739-.551-2.384,2.784-1.385,5.25-1.475,1.638-.06,3.672-.358,3.844.663.256,1.483-1.663,1.081-2.735,1.406" transform="translate(-548.117 -316.806)" fill="#596274"/><path d="M853.462,367.67V355.248c-1.3-.5-3.1-.051-3.478-.816-1.059-2.144,3.017-1.478,4.512-1.478,1.833,0,4.792-.693,4.436,1.182-.227,1.216-1.974.437-2.735.959-.671.464-.368,3.452-.368,4.734v10.061c0,1.5.346,4-.593,4.436-1.059.5-1.911-.715-2.44-1.33-4.171-4.848-8.362-9.665-12.5-14.426.123,4.149-.278,8.813.3,12.5,1.063.721,3.752-.21,3.77,1.4.024,1.521-2.962.816-4.876.816-1.59,0-4.846.607-5.106-.521-.366-1.594,1.818-1.179,3.183-1.55-.009-4.709.633-9.956.518-14.57a6.792,6.792,0,0,0-.223-1.33c-.977-.521-2.986.051-3.4-.889-.816-1.851,1.987-1.478,3.547-1.478a11.255,11.255,0,0,1,2.443,0c1.2.315,2.616,2.635,3.4,3.547,3.009,3.511,6.755,8.01,9.614,11.169" transform="translate(-549.183 -316.806)" fill="#596274"/><path d="M878.107,352.954c.68.958.62,3.943.145,5.1-1.786.723-1.4-1.619-2.291-2.367a5.888,5.888,0,0,0-2.735-.521,11.283,11.283,0,0,0-3.033.08,54.468,54.468,0,0,0-.145,6.358c1.463-.1,3.181.437,4.363,0,1.085-.4.564-1.992,1.476-2.589,1.93-.5,1.259,2.321,1.259,3.847,0,1.709.324,3.246-.219,3.994-2.088.862-1.285-2.069-2.148-2.812-.975-.841-3.209-.161-4.658-.293a68.232,68.232,0,0,0,0,7.1c1.846.287,3.992.669,5.547,0a4.881,4.881,0,0,0,1.7-1.851c.357-.571.88-1.993,1.925-1.4.724.406.057,2.038-.077,2.807-.156.893-.234,2.389-.814,2.735-.628.38-2.829.15-3.991.15-3.183,0-4.906-.154-8.284,0-1.385.064-3.035.393-2.957-.889.077-1.308,2.188-.783,3.03-1.477.175-5.053.027-10.424.073-15.6-.81-.685-2.765-.167-2.88-1.4-.145-1.568,2.691-1.026,4.363-.961,3.224.121,7.534-.247,10.352,0" transform="translate(-551.496 -316.805)" fill="#596274"/><path d="M639.447,366.494c1.5-3.14,3.072-6.824,4.581-10.285.393-.884.983-2.871,1.7-3.175a16.732,16.732,0,0,1,3.329-.073c1.182,0,3.383-.417,3.182,1.107s-2.823.36-3.551,1.483c-.43.655-.145,2.574-.145,3.7,0,3.88-.06,7.764.073,11.387.5.525,1.188.543,2,.739.406.1,1.6.26,1.477,1.257-.169,1.409-3.8.644-5.324.666-1.892.027-5.216.761-4.878-1.107.18-1.026,1.808-.684,2.735-1.114.172-3.5.022-7.316.073-10.944-1.453,3.109-2.679,6.213-4.139,9.613-.205.478-.989,2.785-1.628,2.957-1.449.393-1.965-1.777-2.364-2.735-1.5-3.555-3.028-7.248-4.661-10.576-.172,3.648-.026,7.618-.073,11.387.492.92,4.1.183,3.547,2-.35,1.166-3.172.527-4.731.518-1.8-.008-4.486.56-4.806-.448-.655-2.05,2.517-1.111,3.105-2.141.252-5.123.86-9.883,1.035-15.083-.775-.887-3.042-.347-3.4-1.483-.51-1.589,2.208-1.179,3.623-1.179a10.161,10.161,0,0,1,2.883.073c.688.3,1.321,2.419,1.7,3.253,1.485,3.247,3.355,7.181,4.663,10.208" transform="translate(-532.395 -316.811)" fill="#596274"/><path d="M657.846,326.647l2.047-12.977,4.72,10.379,4.81-10.4,1.917,12.995h-1.4l-1.162-8.553-4.184,9.069-4.129-9.069-1.218,8.553Z" transform="translate(-534.975 -313.652)" fill="#596274"/><path d="M689.728,321.9l-2.067-4.92-2.1,4.92Zm.534,1.291h-5.236l-1.474,3.467H682.04l5.659-12.886,5.512,12.886H691.7Z" transform="translate(-536.921 -313.661)" fill="#596274"/><rect width="1.365" height="12.296" transform="translate(165.382 0.699)" fill="#596274"/><path d="M722.448,316.827a2.951,2.951,0,0,0-.718-.922,2.213,2.213,0,0,0-1.383-.423,1.886,1.886,0,0,0-2.064,1.9,1.283,1.283,0,0,0,.461,1.068,4.014,4.014,0,0,0,1.291.776l1.18.513a6.025,6.025,0,0,1,1.9,1.163,2.962,2.962,0,0,1,.884,2.232,3.946,3.946,0,0,1-6.562,2.784,4.481,4.481,0,0,1-1.144-2.176l1.327-.369a2.912,2.912,0,0,0,.737,1.567,2.356,2.356,0,0,0,1.772.683,2.326,2.326,0,0,0,2.47-2.433,1.828,1.828,0,0,0-.609-1.438,5.328,5.328,0,0,0-1.475-.849l-1.1-.516a5.474,5.474,0,0,1-1.641-1.013,2.559,2.559,0,0,1-.847-2.011,3.177,3.177,0,0,1,3.445-3.17,3.35,3.35,0,0,1,1.974.551,3.738,3.738,0,0,1,1.2,1.366Z" transform="translate(-539.674 -313.695)" fill="#596274"/><path d="M736.078,320.552a5,5,0,1,0,4.995-5.07,5.017,5.017,0,0,0-4.995,5.07m-1.4,0a6.4,6.4,0,1,1,6.4,6.359,6.276,6.276,0,0,1-6.4-6.359" transform="translate(-541.154 -313.695)" fill="#596274"/><path d="M759.314,326.663V313.851L768.9,323.9v-9.53h1.365v12.849l-9.587-10.046v9.493Z" transform="translate(-543.135 -313.668)" fill="#596274"/><path d="M524.685,394.929h4.195v-2.938h.457v6.925h-.457v-3.571h-4.195v3.571h-.457v-6.925h.457Z" transform="translate(-524.229 -319.954)" fill="#596274"/><path d="M540.587,396.207l-1.3-3.279-1.319,3.279Zm.165.418H537.8l-.924,2.274h-.5l2.916-7.133,2.878,7.133h-.5Z" transform="translate(-525.202 -319.936)" fill="#596274"/><path d="M549.509,391.991v4.329a2.6,2.6,0,0,0,.291,1.5,2.017,2.017,0,0,0,3.218,0,2.6,2.6,0,0,0,.292-1.5v-4.329h.456v4.329a2.84,2.84,0,0,1-.395,1.775,2.525,2.525,0,0,1-3.924,0,2.846,2.846,0,0,1-.395-1.775v-4.329Z" transform="translate(-526.218 -319.954)" fill="#596274"/><path d="M563.028,392.405v6.511h-.457v-6.511h-1.8v-.415h4.049v.415Z" transform="translate(-527.157 -319.954)" fill="#596274"/><path d="M575.1,392.405h-2.865v2.514h2.8v.415h-2.8V398.5H575.1v.417h-3.322v-6.925H575.1Z" transform="translate(-528.039 -319.954)" fill="#596274"/><path d="M591.218,391.991v5.575a1.579,1.579,0,0,1-.341,1.143,1.171,1.171,0,0,1-.863.322,1.094,1.094,0,0,1-.756-.26,1.91,1.91,0,0,1-.406-.467l.322-.269a1.181,1.181,0,0,0,.322.395.874.874,0,0,0,.54.188.724.724,0,0,0,.5-.2,1.039,1.039,0,0,0,.227-.778v-5.648Z" transform="translate(-529.408 -319.954)" fill="#596274"/><path d="M605.181,395.461a3.114,3.114,0,1,0-3.115,3.148,3.075,3.075,0,0,0,3.115-3.148m.478,0a3.593,3.593,0,1,1-3.593-3.573,3.536,3.536,0,0,1,3.593,3.573" transform="translate(-530.199 -319.946)" fill="#596274"/><path d="M616.684,396.207l-1.3-3.279-1.319,3.279Zm.166.418H613.9l-.924,2.274h-.5l2.915-7.133,2.878,7.133h-.5Z" transform="translate(-531.326 -319.936)" fill="#596274"/><rect width="0.457" height="6.925" transform="translate(93.012 72.037)" fill="#596274"/><path d="M633.782,391.991V398.5h1.932v.417h-2.389v-6.925Z" transform="translate(-533.002 -319.954)" fill="#596274"/><path d="M642.976,391.991V398.5h1.932v.417H642.52v-6.925Z" transform="translate(-533.741 -319.954)" fill="#596274"/><path d="M655.035,392.405H652.17v2.514h2.8v.415h-2.8V398.5h2.865v.417h-3.321v-6.925h3.321Z" transform="translate(-534.481 -319.954)" fill="#596274"/><path d="M662.829,395.229h.664c.988,0,1.579-.519,1.579-1.409a1.3,1.3,0,0,0-.612-1.207,2.487,2.487,0,0,0-1.06-.207h-.571Zm2.45,3.688-2.243-3.271h-.208v3.271h-.456v-6.926h1a2.424,2.424,0,0,1,1.464.353,1.72,1.72,0,0,1,.715,1.484,1.665,1.665,0,0,1-1.163,1.683,2.672,2.672,0,0,1-.852.134l2.266,3.271Z" transform="translate(-535.338 -319.954)" fill="#596274"/><rect width="0.457" height="6.925" transform="translate(136.882 72.037)" fill="#596274"/><path d="M684.353,392.405h-2.865v2.514h2.8v.415h-2.8V398.5h2.865v.417h-3.321v-6.925h3.321Z" transform="translate(-536.838 -319.954)" fill="#596274"/><path d="M705.255,393.394a3.069,3.069,0,0,0-2.336-1.089,3.152,3.152,0,0,0,.009,6.3,3.215,3.215,0,0,0,2.326-1.05v.6a3.473,3.473,0,0,1-2.3.862,3.567,3.567,0,1,1-.022-7.134,3.375,3.375,0,0,1,2.326.9Z" transform="translate(-538.311 -319.946)" fill="#596274"/><path d="M713.278,395.229h.663c.988,0,1.579-.519,1.579-1.409a1.3,1.3,0,0,0-.611-1.207,2.493,2.493,0,0,0-1.061-.207h-.571Zm2.45,3.688-2.243-3.271h-.207v3.271h-.457v-6.926h1a2.423,2.423,0,0,1,1.464.353,1.718,1.718,0,0,1,.715,1.484,1.664,1.664,0,0,1-1.163,1.683,2.67,2.67,0,0,1-.851.134l2.265,3.271Z" transform="translate(-539.395 -319.954)" fill="#596274"/><path d="M726.394,390.139,725,391.447l-.333-.185,1.2-1.381Zm.456,2.1h-2.865v2.515h2.8v.415h-2.8v3.164h2.865v.417h-3.323v-6.925h3.323Z" transform="translate(-540.256 -319.785)" fill="#596274"/><path d="M737.537,396.207l-1.3-3.279-1.319,3.279Zm.166.418h-2.949l-.925,2.274h-.5l2.916-7.133,2.878,7.133h-.5Z" transform="translate(-541.044 -319.936)" fill="#596274"/><path d="M747.036,392.405v6.511h-.457v-6.511h-1.8v-.415h4.049v.415Z" transform="translate(-541.965 -319.954)" fill="#596274"/><rect width="0.457" height="6.925" transform="translate(212.934 72.037)" fill="#596274"/><path d="M763.375,391.991l2.033,5.9,1.974-5.9h.5l-2.472,7.206-2.532-7.206Z" transform="translate(-543.42 -319.954)" fill="#596274"/><path d="M778.238,392.405h-2.865v2.514h2.8v.415h-2.8V398.5h2.865v.417h-3.322v-6.925h3.322Z" transform="translate(-544.388 -319.954)" fill="#596274"/><path d="M794.085,398.5h.9a3.047,3.047,0,1,0,0-6.093h-.9Zm-.456.418v-6.926H795a3.5,3.5,0,0,1,2.555.966,3.624,3.624,0,0,1,0,4.993,3.508,3.508,0,0,1-2.555.967Z" transform="translate(-545.894 -319.954)" fill="#596274"/><path d="M809.351,392.405h-2.865v2.514h2.8v.415h-2.8V398.5h2.865v.417h-3.322v-6.925h3.322Z" transform="translate(-546.891 -319.954)" fill="#596274"/><path d="M817.147,395.209h.915a1.366,1.366,0,0,0,1.515-1.4c0-.862-.582-1.4-1.59-1.4h-.841Zm0,.417v3.29h-.456V391.99h1.338a1.828,1.828,0,1,1,.011,3.635Z" transform="translate(-547.748 -319.954)" fill="#596274"/><path d="M827.6,391.991v4.329a2.611,2.611,0,0,0,.291,1.5,2.018,2.018,0,0,0,3.219,0,2.6,2.6,0,0,0,.291-1.5v-4.329h.456v4.329a2.84,2.84,0,0,1-.395,1.775,2.524,2.524,0,0,1-3.923,0,2.839,2.839,0,0,1-.395-1.775v-4.329Z" transform="translate(-548.589 -319.954)" fill="#596274"/><rect width="0.457" height="6.925" transform="translate(290.111 72.037)" fill="#596274"/><path d="M850.8,393.156a1.48,1.48,0,0,0-1.36-.852,1.233,1.233,0,0,0-1.289,1.289c0,.748.521,1,1.215,1.338a9.822,9.822,0,0,1,1.381.726,1.527,1.527,0,0,1,.74,1.341,2.075,2.075,0,0,1-2.161,2.025,1.975,1.975,0,0,1-1.608-.728,2.251,2.251,0,0,1-.448-.757l.395-.188a2.4,2.4,0,0,0,.375.664,1.665,1.665,0,0,0,1.3.593,1.61,1.61,0,0,0,1.671-1.6,1.22,1.22,0,0,0-.674-1.092c-.2-.112-.6-.322-1.174-.6a2.582,2.582,0,0,1-1.266-.913,1.491,1.491,0,0,1-.219-.79,1.682,1.682,0,0,1,1.776-1.722,1.858,1.858,0,0,1,1.682.985Z" transform="translate(-550.222 -319.946)" fill="#596274"/><path d="M868.919,392.405h-1.081l.207-.415h1.33v6.925h-.456Z" transform="translate(-551.87 -319.954)" fill="#596274"/><path d="M880.419,393.716a1.36,1.36,0,1,0-1.361,1.4,1.358,1.358,0,0,0,1.361-1.4m.166,3.355a1.527,1.527,0,1,0-1.527,1.537,1.479,1.479,0,0,0,1.527-1.537m.478,0a2.006,2.006,0,0,1-4.01,0,1.82,1.82,0,0,1,1.133-1.756,1.76,1.76,0,0,1-.966-1.6,1.838,1.838,0,0,1,3.677,0,1.76,1.76,0,0,1-.966,1.6,1.821,1.821,0,0,1,1.131,1.756" transform="translate(-552.609 -319.946)" fill="#596274"/><path d="M888.784,397.226a1.47,1.47,0,0,0,.227.737,1.588,1.588,0,0,0,1.226.644,1.607,1.607,0,0,0,1.556-1.61,1.465,1.465,0,0,0-.655-1.266,1.678,1.678,0,0,0-.882-.208v-.417a1.473,1.473,0,0,0,.936-.319,1.505,1.505,0,0,0,.507-1.134,1.357,1.357,0,0,0-2.324-.944,1.459,1.459,0,0,0-.352.925h-.437a1.852,1.852,0,0,1,.51-1.246,1.83,1.83,0,0,1,3.083,1.235,1.733,1.733,0,0,1-1.09,1.671,1.7,1.7,0,0,1,1.182,1.692,2,2,0,0,1-2.033,2.036,1.957,1.957,0,0,1-1.661-.9,1.678,1.678,0,0,1-.251-.893Z" transform="translate(-553.512 -319.946)" fill="#596274"/><path d="M903.928,396.583a1.983,1.983,0,1,0-3.965,0,1.983,1.983,0,1,0,3.965,0m-1.339-4.425-1.537,2.182a2.42,2.42,0,0,1,3.355,2.232,2.462,2.462,0,0,1-4.923-.011,2.444,2.444,0,0,1,.448-1.412l2.305-3.259Z" transform="translate(-554.406 -319.946)" fill="#596274"/></g></g></svg>